<?xml version="1.0" standalone="no"?>
<!DOCTYPE svg PUBLIC "-//W3C//DTD SVG 20010904//EN"
 "http://www.w3.org/TR/2001/REC-SVG-20010904/DTD/svg10.dtd">
<svg version="1.0" xmlns="http://www.w3.org/2000/svg"
 width="1368.000000pt" height="1368.000000pt" viewBox="0 0 1368.000000 1368.000000"
 preserveAspectRatio="xMidYMid meet">
<metadata>
Created by potrace 1.14, written by Peter Selinger 2001-2017
</metadata>
<g transform="translate(0.000000,1368.000000) scale(0.100000,-0.100000)"
fill="#000000" stroke="none">
<path d="M4235 7933 c-116 -24 -264 -110 -326 -188 -10 -11 -29 -33 -43 -50
-69 -80 -114 -224 -114 -368 0 -148 46 -271 139 -366 91 -94 139 -118 419
-211 266 -88 363 -148 417 -258 25 -51 28 -68 28 -152 -1 -83 -4 -102 -28
-152 -32 -66 -112 -150 -171 -180 -106 -54 -260 -60 -361 -14 -121 55 -183
130 -190 231 -10 135 95 211 208 151 25 -14 57 -35 72 -48 44 -38 62 -40 84
-11 57 72 -58 252 -208 326 -61 30 -73 32 -166 32 -89 0 -106 -3 -157 -28 -61
-30 -137 -106 -167 -166 -68 -134 -54 -320 34 -456 124 -192 383 -305 697
-303 289 2 515 107 652 303 88 125 117 227 112 395 -2 63 -7 128 -10 143 -16
68 -60 164 -101 222 -101 142 -222 215 -540 326 -151 52 -220 83 -263 116
-113 86 -75 280 64 328 47 16 123 11 164 -10 51 -26 107 -94 149 -181 44 -91
65 -108 112 -92 19 7 39 32 70 90 60 111 93 155 188 253 68 69 84 91 88 122 4
30 0 43 -18 62 -22 24 -40 25 -134 8 -31 -6 -110 16 -228 62 -205 80 -323 96
-472 64z"/>
<path d="M9545 7940 c-158 -27 -302 -85 -417 -169 -18 -14 -68 -60 -110 -102
-78 -79 -99 -121 -84 -166 4 -10 34 -31 69 -48 109 -52 102 -4 102 -740 0
-346 -3 -647 -6 -668 -11 -59 -42 -100 -99 -128 -14 -7 -39 -23 -57 -36 -26
-19 -31 -28 -27 -51 11 -60 -34 -56 777 -58 639 -2 750 -4 797 -18 47 -13 57
-13 76 -1 24 15 34 52 23 81 -4 10 -32 53 -63 94 -91 123 -141 245 -161 395
-17 127 -39 176 -73 170 -9 -2 -20 -4 -24 -4 -13 -2 -29 -41 -53 -126 -41
-148 -101 -232 -203 -282 -52 -26 -66 -28 -172 -28 -105 0 -119 2 -168 27
-132 68 -169 177 -168 498 1 187 -4 177 88 154 88 -22 137 -64 228 -194 69
-98 83 -106 125 -75 26 20 22 67 -15 159 -29 75 -83 239 -94 287 -3 14 -8 64
-11 110 -14 219 -15 224 -32 237 -47 35 -74 5 -108 -120 -33 -116 -71 -170
-135 -186 -22 -5 -42 -7 -44 -3 -8 13 3 360 14 439 17 129 45 195 108 259 62
62 103 78 202 78 94 0 122 -11 179 -66 39 -40 53 -71 53 -121 -1 -78 -36 -111
-110 -103 -48 5 -53 3 -61 -17 -25 -69 28 -161 124 -211 32 -17 58 -21 130
-22 80 0 97 4 149 29 104 52 187 151 217 258 27 98 14 237 -28 309 -24 40 -37
42 -90 14 -28 -16 -62 -25 -89 -25 -43 0 -66 9 -228 84 -95 45 -148 63 -230
80 -71 15 -227 18 -301 6z"/>
<path d="M11763 7932 c-164 -59 -249 -229 -198 -399 17 -58 57 -103 91 -103
19 0 30 12 53 58 44 86 97 113 150 76 27 -19 51 -72 51 -111 -1 -56 -57 -147
-170 -273 -50 -57 -88 -108 -117 -159 -17 -29 -33 -49 -36 -45 -2 5 -24 45
-47 89 -24 44 -58 106 -77 138 -18 32 -33 60 -33 63 0 3 -20 39 -44 82 -143
254 -161 303 -130 368 9 19 19 34 23 34 3 0 21 14 39 31 28 26 33 37 30 67 -2
27 -10 40 -28 51 -23 12 -32 11 -97 -18 -191 -83 -338 -85 -513 -6 -83 37
-111 37 -129 -1 -16 -37 0 -65 71 -121 56 -44 158 -151 158 -165 0 -3 33 -65
73 -139 40 -74 95 -174 122 -224 103 -193 118 -221 135 -250 10 -16 42 -77 73
-135 l55 -105 -3 -325 c-1 -179 -7 -344 -13 -368 -15 -64 -35 -87 -112 -132
-59 -35 -70 -45 -70 -68 0 -35 10 -49 40 -60 14 -5 179 -9 367 -8 376 1 376 1
376 62 0 29 -5 34 -87 87 -66 43 -84 70 -97 147 -12 71 -15 448 -4 520 31 212
81 299 317 545 116 121 135 143 164 191 79 133 89 317 23 446 -27 54 -96 120
-152 147 -67 32 -184 38 -254 13z"/>
<path d="M6044 7883 c-157 -71 -298 -76 -479 -19 -125 40 -138 42 -155 21 -31
-37 -21 -64 46 -128 101 -96 119 -134 131 -267 9 -99 9 -1338 0 -1413 -11 -93
-36 -125 -135 -176 -63 -32 -71 -99 -14 -118 15 -5 181 -9 369 -9 376 1 376 1
376 62 0 27 -44 74 -69 74 -6 0 -29 16 -51 35 -40 34 -56 65 -68 130 -6 39 -9
615 -2 621 6 7 529 204 540 204 4 0 6 -190 4 -422 -4 -450 -5 -467 -53 -519
-13 -14 -46 -36 -73 -50 -28 -13 -55 -34 -60 -46 -12 -25 -1 -66 21 -79 17
-11 690 -12 718 -2 11 4 25 19 31 32 16 34 -5 65 -68 101 -59 34 -89 67 -105
114 -13 42 -20 1327 -7 1479 11 132 21 153 105 237 78 77 88 101 58 143 -20
29 -42 28 -125 -9 -125 -54 -272 -69 -391 -39 -23 6 -76 22 -116 36 -80 29
-113 27 -129 -8 -15 -33 -3 -56 71 -126 67 -64 100 -115 111 -168 3 -16 9
-131 12 -255 l6 -227 -24 -7 c-13 -4 -76 -26 -139 -50 -253 -96 -385 -144
-388 -140 -5 5 -2 557 3 615 12 124 24 151 90 215 80 78 98 106 89 139 -12 50
-50 55 -130 19z"/>
<path d="M8070 7903 c-8 -2 -24 -8 -35 -13 -86 -35 -189 -60 -264 -64 -88 -5
-160 7 -268 44 -103 35 -114 36 -136 12 -32 -35 -21 -61 63 -143 88 -87 106
-126 115 -250 10 -131 6 -1374 -5 -1428 -16 -83 -37 -110 -118 -152 -58 -31
-73 -53 -60 -90 5 -16 15 -32 21 -37 7 -4 296 -8 642 -8 620 -2 677 -3 743
-23 44 -13 73 -6 100 24 32 37 28 65 -22 153 -25 42 -49 95 -55 117 -6 22 -10
121 -9 220 1 142 -2 194 -16 245 -49 186 -162 319 -246 288 -46 -17 -51 -49
-19 -136 84 -232 58 -419 -78 -547 -44 -41 -109 -65 -177 -65 -68 0 -111 13
-166 51 -77 53 -115 126 -127 244 -9 82 -8 1091 0 1185 10 105 41 164 113 215
103 72 112 90 73 139 -20 25 -37 30 -69 19z"/>
<path d="M2325 7875 c-44 -43 -28 -91 58 -180 91 -94 93 -171 17 -470 -29
-115 -55 -212 -56 -214 -2 -2 -18 6 -37 18 -160 98 -352 51 -428 -107 -29 -61
-32 -180 -5 -231 41 -76 105 -112 175 -96 42 9 53 32 42 92 -19 99 37 147 137
118 l51 -16 -38 -107 c-59 -162 -92 -244 -113 -274 -10 -14 -18 -30 -18 -35 0
-5 -23 -34 -50 -65 -52 -58 -118 -98 -162 -98 -35 0 -75 34 -100 86 -20 43
-21 44 -70 44 -172 0 -283 -201 -228 -411 12 -45 68 -123 111 -155 99 -73 278
-68 394 10 106 71 221 235 309 441 41 95 109 288 121 343 4 19 11 29 17 26 6
-4 27 -43 48 -88 35 -77 45 -104 84 -238 12 -41 23 -59 39 -64 70 -24 86 -10
143 115 55 120 87 179 90 165 18 -64 94 -366 98 -389 3 -16 8 -43 11 -59 9
-46 -12 -91 -65 -135 -64 -54 -68 -98 -10 -119 14 -5 165 -9 336 -8 253 1 314
4 328 15 52 44 38 93 -39 139 -124 74 -140 114 -310 767 -14 55 -32 123 -40
150 -17 56 -147 546 -163 613 -14 61 -8 142 16 188 11 21 43 63 71 92 28 30
51 59 52 65 0 7 2 20 4 29 2 10 -6 29 -17 43 -26 34 -66 33 -166 -4 -98 -37
-212 -61 -255 -55 -75 11 -143 27 -224 55 -106 35 -127 36 -158 4z m330 -635
c2 -8 34 -129 71 -269 l68 -254 -27 -46 c-15 -25 -41 -74 -59 -108 l-32 -63
-37 90 c-20 49 -56 124 -80 166 -24 42 -43 86 -41 98 4 21 84 348 104 421 l11
40 9 -30 c5 -16 11 -37 13 -45z"/>
<path d="M527 7648 c-21 -11 -22 -52 -2 -72 9 -9 39 -22 67 -31 79 -23 104
-56 53 -69 -34 -9 -31 -21 11 -50 88 -60 102 -166 21 -166 -26 0 -109 63 -185
141 -78 80 -115 99 -194 99 -49 0 -108 -19 -115 -37 -4 -9 2 -33 13 -52 21
-37 21 -71 1 -71 -111 -4 -206 -61 -193 -116 6 -23 11 -25 39 -21 18 2 46 10
63 17 49 21 67 8 59 -40 -9 -55 1 -77 40 -90 45 -15 89 -1 169 51 91 60 202
85 269 60 77 -30 8 -134 -116 -177 -47 -16 -61 -37 -32 -48 8 -3 15 -14 15
-24 0 -14 -15 -25 -60 -41 -32 -12 -62 -26 -65 -31 -10 -15 6 -38 36 -50 45
-19 100 -14 157 15 72 36 86 32 90 -28 2 -26 6 -47 11 -47 4 0 26 14 48 30 84
62 104 162 57 286 -39 103 -40 114 -15 114 25 0 108 -37 119 -54 4 -6 7 -45 7
-86 0 -63 5 -83 28 -125 51 -91 114 -147 229 -200 41 -18 82 -43 92 -54 25
-28 23 -92 -4 -136 -40 -64 -78 -66 -71 -3 5 49 -29 94 -87 114 -30 10 -43 10
-70 -2 -56 -23 -88 -77 -78 -131 29 -142 194 -178 310 -68 91 88 128 216 97
333 -26 95 -152 241 -283 328 -37 25 -70 50 -74 55 -9 15 23 57 59 79 32 20
82 26 104 12 24 -15 26 -60 4 -98 -15 -24 -19 -40 -12 -47 16 -16 41 0 56 38
39 91 -3 157 -99 157 -43 0 -95 -31 -135 -79 -25 -30 -33 -34 -58 -29 -15 4
-41 17 -57 29 l-29 23 32 33 c82 84 105 162 69 238 -23 49 -76 99 -126 120
-44 18 -61 12 -57 -24 3 -33 -10 -63 -29 -63 -8 0 -35 20 -62 45 -26 25 -52
45 -58 46 -6 0 -18 2 -27 4 -8 1 -23 -1 -32 -7z m513 -587 c100 -76 220 -208
220 -243 0 -18 -4 -19 -35 -14 -94 18 -210 92 -250 159 -35 61 -39 147 -6 147
3 0 35 -22 71 -49z"/>
<path d="M12860 7632 c-87 -56 -125 -122 -115 -195 8 -52 24 -83 69 -132 51
-55 47 -70 -26 -95 l-36 -13 -51 51 c-46 48 -86 68 -128 65 -7 0 -21 -1 -32
-2 -10 0 -30 -13 -45 -27 -20 -20 -26 -37 -26 -68 0 -45 31 -106 54 -106 23 0
24 22 4 55 -35 58 -14 105 46 105 39 0 96 -35 113 -70 10 -20 9 -27 -4 -42 -9
-10 -20 -18 -25 -18 -14 0 -108 -73 -169 -131 -163 -158 -202 -304 -124 -460
86 -169 281 -212 359 -79 22 37 25 100 7 134 -31 56 -117 75 -171 36 -35 -25
-50 -56 -50 -105 0 -19 -6 -35 -14 -38 -31 -12 -89 87 -80 138 5 30 34 74 48
75 5 0 41 15 80 34 93 45 174 118 211 191 25 50 29 68 27 135 l-1 78 62 30
c88 44 97 32 56 -78 -34 -94 -40 -171 -16 -217 30 -57 104 -123 121 -106 3 3
6 23 6 43 0 58 14 63 81 29 70 -37 138 -41 178 -11 14 10 26 25 26 33 0 7 -29
26 -65 41 -66 28 -72 38 -44 69 8 8 14 18 14 21 0 3 -26 15 -58 26 -63 23
-133 84 -139 121 -1 12 6 30 18 42 42 42 204 13 292 -53 110 -83 219 -66 203
33 -4 24 -2 46 4 54 11 13 60 9 60 -6 0 -15 69 -22 85 -9 54 44 -55 124 -176
129 -27 1 -30 30 -7 70 12 21 19 45 15 54 -13 34 -146 49 -208 23 -19 -8 -77
-57 -131 -110 -103 -101 -160 -133 -193 -106 -37 31 -9 110 54 155 42 28 52
45 27 45 -7 0 -19 7 -26 15 -18 21 10 51 57 60 73 13 104 45 87 89 -16 41 -73
27 -135 -34 -23 -22 -47 -40 -54 -40 -22 0 -37 28 -33 62 4 45 -23 48 -82 10z
m-126 -581 c-15 -99 -95 -183 -223 -231 -91 -34 -116 -14 -63 52 71 89 210
216 252 230 26 9 40 -11 34 -51z"/>
</g>
</svg>
